<?xml version="1.0" encoding="UTF-8"?>
<svg xmlns="http://www.w3.org/2000/svg" xmlns:xlink="http://www.w3.org/1999/xlink" width="281pt" height="200pt" viewBox="0 0 281 200" version="1.1">
<g id="surface1">
<rect x="0" y="0" width="281" height="200" style="fill:rgb(54.509804%,76.470588%,29.019608%);fill-opacity:1;stroke:none;"/>
<path style=" stroke:none;fill-rule:evenodd;fill:rgb(10.196078%,10.196078%,10.196078%);fill-opacity:1;" d="M 94.578125 177.914062 L 186.441406 177.914062 C 186.9375 177.914062 187.527344 177.476562 187.339844 177.015625 L 182.84375 165.835938 C 182.660156 165.375 180.757812 164.9375 180.257812 164.9375 L 100.757812 164.9375 C 100.261719 164.9375 98.359375 165.375 98.171875 165.835938 L 93.675781 177.015625 C 93.488281 177.476562 94.078125 177.914062 94.578125 177.914062 Z M 94.578125 177.914062 "/>
<path style=" stroke:none;fill-rule:evenodd;fill:rgb(20%,20%,20%);fill-opacity:1;" d="M 133.074219 138.636719 L 147.941406 138.636719 L 147.941406 167.296875 C 143.28125 169.238281 138.4375 169.53125 133.074219 167.296875 Z M 133.074219 138.636719 "/>
<path style=" stroke:none;fill-rule:evenodd;fill:rgb(12.941176%,12.941176%,12.941176%);fill-opacity:1;" d="M 146.558594 138.636719 L 147.945312 138.636719 L 147.945312 167.109375 C 147.671875 167.449219 147.121094 167.898438 146.546875 167.902344 Z M 146.558594 138.636719 "/>
<path style=" stroke:none;fill-rule:evenodd;fill:rgb(100%,100%,100%);fill-opacity:1;" d="M 45.558594 150.910156 L 235.460938 150.910156 C 240.375 150.910156 244.363281 146.917969 244.363281 141.996094 L 244.363281 31.304688 C 244.363281 26.386719 240.375 22.394531 235.460938 22.394531 L 45.558594 22.394531 C 40.640625 22.394531 36.65625 26.386719 36.65625 31.304688 L 36.65625 141.996094 C 36.65625 146.917969 40.640625 150.910156 45.558594 150.910156 Z M 45.558594 150.910156 "/>
<path style=" stroke:none;fill-rule:evenodd;fill:rgb(77.254902%,88.235294%,64.705882%);fill-opacity:1;" d="M 40.40625 26.507812 L 240.480469 26.507812 L 240.480469 134.390625 L 40.40625 134.390625 Z M 40.40625 26.507812 "/>
<path style=" stroke:none;fill-rule:evenodd;fill:rgb(97.647059%,97.647059%,97.647059%);fill-opacity:1;" d="M 57.992188 26.507812 L 223.023438 26.507812 L 223.023438 134.390625 L 57.992188 134.390625 Z M 57.992188 26.507812 "/>
<path style=" stroke:none;fill-rule:evenodd;fill:rgb(30.196078%,30.196078%,30.196078%);fill-opacity:1;" d="M 36.625 22.21875 L 36.625 139.886719 L 244.390625 139.886719 L 244.390625 22.21875 Z M 41.523438 28.300781 L 238.59375 28.300781 L 238.59375 133.316406 L 41.523438 133.316406 Z M 41.523438 28.300781 "/>
<path style=" stroke:none;fill-rule:evenodd;fill:rgb(100%,43.921569%,26.27451%);fill-opacity:1;" d="M 68.519531 35.375 L 131.628906 35.375 C 132.382812 35.375 132.992188 35.984375 132.992188 36.738281 L 132.992188 44.382812 C 132.992188 45.136719 132.382812 45.746094 131.628906 45.746094 L 68.519531 45.746094 C 67.765625 45.746094 67.15625 45.136719 67.15625 44.382812 L 67.15625 36.738281 C 67.15625 35.984375 67.765625 35.375 68.519531 35.375 Z M 68.519531 35.375 "/>
<path style=" stroke:none;fill-rule:evenodd;fill:rgb(100%,43.921569%,26.27451%);fill-opacity:1;" d="M 68.527344 49.261719 L 131.621094 49.261719 C 132.378906 49.261719 132.992188 49.878906 132.992188 50.636719 L 132.992188 100 C 132.992188 100.757812 132.378906 101.371094 131.621094 101.371094 L 68.527344 101.371094 C 67.769531 101.371094 67.15625 100.757812 67.15625 100 L 67.15625 50.636719 C 67.15625 49.878906 67.769531 49.261719 68.527344 49.261719 Z M 68.527344 49.261719 "/>
<path style=" stroke:none;fill-rule:evenodd;fill:rgb(100%,67.058824%,56.862745%);fill-opacity:1;" d="M 67.71875 105.117188 L 75.613281 105.117188 C 75.992188 105.117188 76.296875 105.425781 76.296875 105.804688 L 76.296875 113.742188 C 76.296875 114.125 75.992188 114.429688 75.613281 114.429688 L 67.71875 114.429688 C 67.339844 114.429688 67.03125 114.125 67.03125 113.742188 L 67.03125 105.804688 C 67.03125 105.425781 67.339844 105.117188 67.71875 105.117188 Z M 67.71875 105.117188 "/>
<path style=" stroke:none;fill-rule:evenodd;fill:rgb(100%,67.058824%,56.862745%);fill-opacity:1;" d="M 80.152344 105.117188 L 88.046875 105.117188 C 88.425781 105.117188 88.734375 105.425781 88.734375 105.804688 L 88.734375 113.742188 C 88.734375 114.125 88.425781 114.429688 88.046875 114.429688 L 80.152344 114.429688 C 79.773438 114.429688 79.46875 114.125 79.46875 113.742188 L 79.46875 105.804688 C 79.46875 105.425781 79.773438 105.117188 80.152344 105.117188 Z M 80.152344 105.117188 "/>
<path style=" stroke:none;fill-rule:evenodd;fill:rgb(100%,43.921569%,26.27451%);fill-opacity:1;" d="M 140.671875 35.375 L 189.613281 35.375 C 189.949219 35.375 190.222656 35.644531 190.222656 35.980469 L 190.222656 57.964844 C 190.222656 58.300781 189.949219 58.570312 189.613281 58.570312 L 140.671875 58.570312 C 140.335938 58.570312 140.066406 58.300781 140.066406 57.964844 L 140.066406 35.980469 C 140.066406 35.644531 140.335938 35.375 140.671875 35.375 Z M 140.671875 35.375 "/>
<path style=" stroke:none;fill-rule:evenodd;fill:rgb(100%,43.921569%,26.27451%);fill-opacity:1;" d="M 194.105469 35.375 L 216.324219 35.375 C 216.660156 35.375 216.933594 35.644531 216.933594 35.980469 L 216.933594 57.964844 C 216.933594 58.300781 216.660156 58.570312 216.324219 58.570312 L 194.105469 58.570312 C 193.769531 58.570312 193.5 58.300781 193.5 57.964844 L 193.5 35.980469 C 193.5 35.644531 193.769531 35.375 194.105469 35.375 Z M 194.105469 35.375 "/>
<path style=" stroke:none;fill-rule:evenodd;fill:rgb(90.196078%,90.196078%,90.196078%);fill-opacity:1;" d="M 141.46875 76.261719 L 215.324219 76.261719 C 216.101562 76.261719 216.730469 76.890625 216.730469 77.667969 L 216.730469 128.527344 C 216.730469 129.304688 216.101562 129.933594 215.324219 129.933594 L 141.46875 129.933594 C 140.695312 129.933594 140.066406 129.304688 140.066406 128.527344 L 140.066406 77.667969 C 140.066406 76.890625 140.695312 76.261719 141.46875 76.261719 Z M 141.46875 76.261719 "/>
<path style=" stroke:none;fill-rule:evenodd;fill:rgb(100%,100%,100%);fill-opacity:1;" d="M 213.714844 40.058594 L 213.816406 40.242188 C 213.867188 40.339844 213.835938 40.460938 213.738281 40.511719 L 211.714844 41.621094 C 211.621094 41.671875 211.5 41.636719 211.449219 41.542969 L 211.34375 41.355469 C 211.292969 41.261719 211.328125 41.140625 211.425781 41.085938 L 213.445312 39.980469 C 213.542969 39.925781 213.660156 39.960938 213.714844 40.058594 Z M 213.714844 40.058594 "/>
<path style=" stroke:none;fill-rule:evenodd;fill:rgb(100%,100%,100%);fill-opacity:1;" d="M 211.539062 41.117188 L 211.753906 41.175781 C 211.859375 41.207031 211.921875 41.316406 211.890625 41.421875 L 209.96875 48.1875 C 209.941406 48.292969 209.832031 48.351562 209.730469 48.324219 L 209.511719 48.261719 C 209.40625 48.230469 209.347656 48.121094 209.375 48.019531 L 211.296875 41.25 C 211.328125 41.148438 211.433594 41.085938 211.539062 41.117188 Z M 211.539062 41.117188 "/>
<path style=" stroke:none;fill-rule:evenodd;fill:rgb(100%,100%,100%);fill-opacity:1;" d="M 209.269531 53.550781 C 209.269531 54.164062 208.773438 54.660156 208.160156 54.660156 C 207.550781 54.660156 207.054688 54.164062 207.054688 53.550781 C 207.054688 52.9375 207.550781 52.441406 208.160156 52.441406 C 208.773438 52.441406 209.269531 52.9375 209.269531 53.550781 Z M 209.269531 53.550781 "/>
<path style=" stroke:none;fill-rule:evenodd;fill:rgb(100%,100%,100%);fill-opacity:1;" d="M 208.8125 53.550781 C 208.8125 53.910156 208.523438 54.203125 208.160156 54.203125 C 207.800781 54.203125 207.507812 53.910156 207.507812 53.550781 C 207.507812 53.1875 207.800781 52.894531 208.160156 52.894531 C 208.523438 52.894531 208.8125 53.1875 208.8125 53.550781 Z M 208.8125 53.550781 "/>
<path style=" stroke:none;fill-rule:evenodd;fill:rgb(100%,100%,100%);fill-opacity:1;" d="M 203.039062 53.550781 C 203.039062 54.164062 202.542969 54.660156 201.933594 54.660156 C 201.320312 54.660156 200.824219 54.164062 200.824219 53.550781 C 200.824219 52.9375 201.320312 52.441406 201.933594 52.441406 C 202.542969 52.441406 203.039062 52.9375 203.039062 53.550781 Z M 203.039062 53.550781 "/>
<path style=" stroke:none;fill-rule:evenodd;fill:rgb(100%,100%,100%);fill-opacity:1;" d="M 202.582031 53.550781 C 202.582031 53.910156 202.292969 54.203125 201.933594 54.203125 C 201.570312 54.203125 201.277344 53.910156 201.277344 53.550781 C 201.277344 53.1875 201.570312 52.894531 201.933594 52.894531 C 202.292969 52.894531 202.582031 53.1875 202.582031 53.550781 Z M 202.582031 53.550781 "/>
<path style=" stroke:none;fill-rule:evenodd;fill:rgb(100%,100%,100%);fill-opacity:1;" d="M 200.460938 52.042969 L 200.460938 51.925781 C 200.460938 51.8125 200.550781 51.722656 200.664062 51.722656 L 210.179688 51.722656 C 210.292969 51.722656 210.382812 51.8125 210.382812 51.925781 L 210.382812 52.042969 C 210.382812 52.15625 210.292969 52.246094 210.179688 52.246094 L 200.664062 52.246094 C 200.550781 52.246094 200.460938 52.15625 200.460938 52.042969 Z M 200.460938 52.042969 "/>
<path style=" stroke:none;fill-rule:evenodd;fill:rgb(100%,100%,100%);fill-opacity:1;" d="M 199.042969 48.054688 L 199.042969 47.835938 C 199.042969 47.710938 199.140625 47.613281 199.265625 47.613281 L 209.730469 47.613281 C 209.851562 47.613281 209.953125 47.710938 209.953125 47.835938 L 209.953125 48.054688 C 209.953125 48.175781 209.851562 48.277344 209.730469 48.277344 L 199.265625 48.277344 C 199.140625 48.277344 199.042969 48.175781 199.042969 48.054688 Z M 199.042969 48.054688 "/>
<path style=" stroke:none;fill-rule:evenodd;fill:rgb(100%,100%,100%);fill-opacity:1;" d="M 208.617188 47.875 L 208.652344 47.859375 C 208.777344 47.8125 208.917969 47.875 208.964844 47.996094 L 210.503906 51.90625 C 210.554688 52.03125 210.496094 52.171875 210.371094 52.21875 L 210.335938 52.234375 C 210.210938 52.285156 210.070312 52.222656 210.019531 52.097656 L 208.480469 48.1875 C 208.433594 48.066406 208.492188 47.925781 208.617188 47.875 Z M 208.617188 47.875 "/>
<path style=" stroke:none;fill-rule:evenodd;fill:rgb(100%,100%,100%);fill-opacity:1;" d="M 197.59375 42.488281 L 197.976562 42.386719 C 198.042969 42.371094 198.117188 42.414062 198.132812 42.484375 L 199.5625 48.03125 C 199.578125 48.097656 199.539062 48.171875 199.46875 48.1875 L 199.085938 48.285156 C 199.015625 48.304688 198.945312 48.261719 198.925781 48.195312 L 197.5 42.644531 C 197.480469 42.574219 197.523438 42.503906 197.59375 42.488281 Z M 197.59375 42.488281 "/>
<path style=" stroke:none;fill-rule:evenodd;fill:rgb(100%,100%,100%);fill-opacity:1;" d="M 197.542969 42.800781 L 197.542969 42.65625 C 197.542969 42.5 197.667969 42.375 197.824219 42.375 L 211.125 42.375 C 211.277344 42.375 211.40625 42.5 211.40625 42.65625 L 211.40625 42.800781 C 211.40625 42.957031 211.277344 43.085938 211.125 43.085938 L 197.824219 43.085938 C 197.667969 43.085938 197.542969 42.957031 197.542969 42.800781 Z M 197.542969 42.800781 "/>
<path style=" stroke:none;fill-rule:evenodd;fill:rgb(100%,100%,100%);fill-opacity:1;" d="M 200.96875 42.601562 L 201.023438 42.601562 C 201.148438 42.601562 201.25 42.699219 201.25 42.824219 L 201.25 47.792969 C 201.25 47.914062 201.148438 48.015625 201.023438 48.015625 L 200.96875 48.015625 C 200.84375 48.015625 200.746094 47.914062 200.746094 47.792969 L 200.746094 42.824219 C 200.746094 42.699219 200.84375 42.601562 200.96875 42.601562 Z M 200.96875 42.601562 "/>
<path style=" stroke:none;fill-rule:evenodd;fill:rgb(100%,100%,100%);fill-opacity:1;" d="M 198.4375 45.585938 L 198.4375 45.148438 C 198.4375 45.113281 198.46875 45.078125 198.507812 45.078125 L 210.445312 45.078125 C 210.484375 45.078125 210.515625 45.113281 210.515625 45.148438 L 210.515625 45.585938 C 210.515625 45.625 210.484375 45.652344 210.445312 45.652344 L 198.507812 45.652344 C 198.46875 45.652344 198.4375 45.625 198.4375 45.585938 Z M 198.4375 45.585938 "/>
<path style=" stroke:none;fill-rule:nonzero;fill:rgb(100%,100%,100%);fill-opacity:1;" d="M 171.253906 51.359375 C 171.152344 51.359375 171.058594 51.367188 170.984375 51.371094 C 170.15625 51.445312 169.667969 52.296875 169.667969 52.917969 C 169.667969 53.542969 170.152344 54.070312 171.167969 55.199219 C 172.082031 56.21875 172.113281 56.246094 172.453125 56.597656 C 172.746094 56.304688 172.8125 56.242188 173.808594 55.199219 C 174.859375 54.101562 175.3125 53.542969 175.3125 52.917969 C 175.3125 52.296875 174.820312 51.445312 173.992188 51.371094 C 173.652344 51.34375 172.957031 51.300781 172.488281 52.015625 C 172.121094 51.457031 171.617188 51.359375 171.253906 51.359375 Z M 171.253906 51.359375 "/>
<path style=" stroke:none;fill-rule:evenodd;fill:rgb(100%,100%,100%);fill-opacity:1;" d="M 142.492188 37.210938 L 160.59375 37.210938 C 160.929688 37.210938 161.199219 37.480469 161.199219 37.816406 L 161.199219 55.941406 C 161.199219 56.273438 160.929688 56.546875 160.59375 56.546875 L 142.492188 56.546875 C 142.15625 56.546875 141.882812 56.273438 141.882812 55.941406 L 141.882812 37.816406 C 141.882812 37.480469 142.15625 37.210938 142.492188 37.210938 Z M 142.492188 37.210938 "/>
<path style=" stroke:none;fill-rule:evenodd;fill:rgb(100%,100%,100%);fill-opacity:1;" d="M 163.65625 37.828125 L 187.5 37.828125 C 187.835938 37.828125 188.105469 38.101562 188.105469 38.433594 L 188.105469 40.332031 C 188.105469 40.667969 187.835938 40.941406 187.5 40.941406 L 163.65625 40.941406 C 163.320312 40.941406 163.050781 40.667969 163.050781 40.332031 L 163.050781 38.433594 C 163.050781 38.101562 163.320312 37.828125 163.65625 37.828125 Z M 163.65625 37.828125 "/>
<path style=" stroke:none;fill-rule:evenodd;fill:rgb(100%,100%,100%);fill-opacity:1;" d="M 163.9375 42.539062 L 181.941406 42.539062 C 182.277344 42.539062 182.546875 42.8125 182.546875 43.148438 L 182.546875 44.761719 C 182.546875 45.097656 182.277344 45.371094 181.941406 45.371094 L 163.9375 45.371094 C 163.601562 45.371094 163.332031 45.097656 163.332031 44.761719 L 163.332031 43.148438 C 163.332031 42.8125 163.601562 42.539062 163.9375 42.539062 Z M 163.9375 42.539062 "/>
<path style=" stroke:none;fill-rule:nonzero;fill:rgb(100%,100%,100%);fill-opacity:1;" d="M 177.894531 51.359375 C 177.792969 51.359375 177.699219 51.367188 177.625 51.371094 C 176.800781 51.445312 176.308594 52.296875 176.308594 52.917969 C 176.308594 53.542969 176.792969 54.070312 177.808594 55.199219 C 178.722656 56.21875 178.757812 56.246094 179.09375 56.597656 C 179.390625 56.304688 179.453125 56.242188 180.453125 55.199219 C 181.5 54.101562 181.953125 53.542969 181.953125 52.917969 C 181.953125 52.296875 181.460938 51.445312 180.632812 51.371094 C 180.292969 51.34375 179.601562 51.300781 179.128906 52.015625 C 178.765625 51.457031 178.261719 51.359375 177.894531 51.359375 Z M 177.894531 51.359375 "/>
<path style=" stroke:none;fill-rule:nonzero;fill:rgb(100%,100%,100%);fill-opacity:1;" d="M 184.628906 51.359375 C 184.527344 51.359375 184.4375 51.367188 184.359375 51.371094 C 183.535156 51.445312 183.042969 52.296875 183.042969 52.917969 C 183.042969 53.542969 183.527344 54.070312 184.542969 55.199219 C 185.460938 56.21875 185.488281 56.246094 185.832031 56.597656 C 186.125 56.304688 186.191406 56.242188 187.1875 55.199219 C 188.238281 54.101562 188.6875 53.542969 188.6875 52.917969 C 188.6875 52.296875 188.199219 51.445312 187.371094 51.371094 C 187.027344 51.34375 186.335938 51.300781 185.863281 52.015625 C 185.5 51.457031 184.996094 51.359375 184.628906 51.359375 Z M 184.628906 51.359375 "/>
<path style=" stroke:none;fill-rule:evenodd;fill:rgb(100%,100%,100%);fill-opacity:1;" d="M 143.980469 78.921875 L 209.132812 78.921875 C 209.425781 78.921875 209.660156 79.160156 209.660156 79.449219 L 209.660156 80.578125 C 209.660156 80.871094 209.425781 81.105469 209.132812 81.105469 L 143.980469 81.105469 C 143.691406 81.105469 143.457031 80.871094 143.457031 80.578125 L 143.457031 79.449219 C 143.457031 79.160156 143.691406 78.921875 143.980469 78.921875 Z M 143.980469 78.921875 "/>
<path style=" stroke:none;fill-rule:evenodd;fill:rgb(100%,100%,100%);fill-opacity:1;" d="M 144.019531 85.332031 L 207.632812 85.332031 C 207.941406 85.332031 208.195312 85.582031 208.195312 85.894531 L 208.195312 87.101562 C 208.195312 87.414062 207.941406 87.667969 207.632812 87.667969 L 144.019531 87.667969 C 143.707031 87.667969 143.457031 87.414062 143.457031 87.101562 L 143.457031 85.894531 C 143.457031 85.582031 143.707031 85.332031 144.019531 85.332031 Z M 144.019531 85.332031 "/>
<path style=" stroke:none;fill-rule:evenodd;fill:rgb(100%,100%,100%);fill-opacity:1;" d="M 144.019531 89.292969 L 205.367188 89.292969 C 205.679688 89.292969 205.929688 89.542969 205.929688 89.855469 L 205.929688 91.0625 C 205.929688 91.375 205.679688 91.628906 205.367188 91.628906 L 144.019531 91.628906 C 143.707031 91.628906 143.457031 91.375 143.457031 91.0625 L 143.457031 89.855469 C 143.457031 89.542969 143.707031 89.292969 144.019531 89.292969 Z M 144.019531 89.292969 "/>
<path style=" stroke:none;fill-rule:evenodd;fill:rgb(100%,100%,100%);fill-opacity:1;" d="M 144.019531 93.378906 L 176.859375 93.378906 C 177.167969 93.378906 177.421875 93.632812 177.421875 93.945312 L 177.421875 95.152344 C 177.421875 95.460938 177.167969 95.714844 176.859375 95.714844 L 144.019531 95.714844 C 143.707031 95.714844 143.457031 95.460938 143.457031 95.152344 L 143.457031 93.945312 C 143.457031 93.632812 143.707031 93.378906 144.019531 93.378906 Z M 144.019531 93.378906 "/>
<path style=" stroke:none;fill-rule:evenodd;fill:rgb(100%,100%,100%);fill-opacity:1;" d="M 144.019531 100.261719 L 207.632812 100.261719 C 207.941406 100.261719 208.195312 100.515625 208.195312 100.828125 L 208.195312 102.035156 C 208.195312 102.347656 207.941406 102.597656 207.632812 102.597656 L 144.019531 102.597656 C 143.707031 102.597656 143.457031 102.347656 143.457031 102.035156 L 143.457031 100.828125 C 143.457031 100.515625 143.707031 100.261719 144.019531 100.261719 Z M 144.019531 100.261719 "/>
<path style=" stroke:none;fill-rule:evenodd;fill:rgb(100%,100%,100%);fill-opacity:1;" d="M 144.019531 104.222656 L 205.367188 104.222656 C 205.679688 104.222656 205.929688 104.476562 205.929688 104.789062 L 205.929688 105.996094 C 205.929688 106.308594 205.679688 106.5625 205.367188 106.5625 L 144.019531 106.5625 C 143.707031 106.5625 143.457031 106.308594 143.457031 105.996094 L 143.457031 104.789062 C 143.457031 104.476562 143.707031 104.222656 144.019531 104.222656 Z M 144.019531 104.222656 "/>
<path style=" stroke:none;fill-rule:evenodd;fill:rgb(100%,100%,100%);fill-opacity:1;" d="M 144.019531 108.3125 L 176.859375 108.3125 C 177.167969 108.3125 177.421875 108.566406 177.421875 108.875 L 177.421875 110.085938 C 177.421875 110.394531 177.167969 110.648438 176.859375 110.648438 L 144.019531 110.648438 C 143.707031 110.648438 143.457031 110.394531 143.457031 110.085938 L 143.457031 108.875 C 143.457031 108.566406 143.707031 108.3125 144.019531 108.3125 Z M 144.019531 108.3125 "/>
<path style=" stroke:none;fill-rule:evenodd;fill:rgb(100%,100%,100%);fill-opacity:1;" d="M 144.019531 115.378906 L 207.632812 115.378906 C 207.941406 115.378906 208.195312 115.632812 208.195312 115.941406 L 208.195312 117.152344 C 208.195312 117.460938 207.941406 117.714844 207.632812 117.714844 L 144.019531 117.714844 C 143.707031 117.714844 143.457031 117.460938 143.457031 117.152344 L 143.457031 115.941406 C 143.457031 115.632812 143.707031 115.378906 144.019531 115.378906 Z M 144.019531 115.378906 "/>
<path style=" stroke:none;fill-rule:evenodd;fill:rgb(100%,100%,100%);fill-opacity:1;" d="M 144.019531 119.34375 L 205.367188 119.34375 C 205.679688 119.34375 205.929688 119.59375 205.929688 119.90625 L 205.929688 121.113281 C 205.929688 121.425781 205.679688 121.679688 205.367188 121.679688 L 144.019531 121.679688 C 143.707031 121.679688 143.457031 121.425781 143.457031 121.113281 L 143.457031 119.90625 C 143.457031 119.59375 143.707031 119.34375 144.019531 119.34375 Z M 144.019531 119.34375 "/>
<path style=" stroke:none;fill-rule:evenodd;fill:rgb(100%,100%,100%);fill-opacity:1;" d="M 144.019531 123.425781 L 176.859375 123.425781 C 177.167969 123.425781 177.421875 123.679688 177.421875 123.992188 L 177.421875 125.199219 C 177.421875 125.511719 177.167969 125.761719 176.859375 125.761719 L 144.019531 125.761719 C 143.707031 125.761719 143.457031 125.511719 143.457031 125.199219 L 143.457031 123.992188 C 143.457031 123.679688 143.707031 123.425781 144.019531 123.425781 Z M 144.019531 123.425781 "/>
<path style=" stroke:none;fill-rule:evenodd;fill:rgb(14.901961%,19.607843%,21.960784%);fill-opacity:1;" d="M 92.699219 55.769531 L 111.816406 55.769531 C 112.296875 55.769531 112.683594 56.15625 112.683594 56.636719 L 112.683594 92.664062 C 112.683594 93.144531 112.296875 93.535156 111.816406 93.535156 L 92.699219 93.535156 C 92.222656 93.535156 91.832031 93.144531 91.832031 92.664062 L 91.832031 56.636719 C 91.832031 56.15625 92.222656 55.769531 92.699219 55.769531 Z M 92.699219 55.769531 "/>
<path style=" stroke:none;fill-rule:evenodd;fill:rgb(39.215686%,86.666667%,9.019608%);fill-opacity:1;" d="M 92.476562 58.859375 L 112.113281 58.859375 L 112.113281 90.839844 L 92.476562 90.839844 Z M 92.476562 58.859375 "/>
<path style=" stroke:none;fill-rule:evenodd;fill:rgb(32.941176%,43.137255%,47.843137%);fill-opacity:1;" d="M 98.972656 57.230469 C 98.972656 56.914062 98.742188 56.65625 98.457031 56.65625 C 98.171875 56.65625 97.945312 56.914062 97.945312 57.230469 C 97.945312 57.546875 98.171875 57.804688 98.457031 57.804688 C 98.742188 57.804688 98.972656 57.546875 98.972656 57.230469 Z M 98.972656 57.230469 "/>
<path style=" stroke:none;fill-rule:evenodd;fill:rgb(32.941176%,43.137255%,47.843137%);fill-opacity:1;" d="M 100.183594 56.777344 L 105.878906 56.777344 C 105.988281 56.777344 106.074219 56.863281 106.074219 56.972656 L 106.074219 57.519531 C 106.074219 57.625 105.988281 57.714844 105.878906 57.714844 L 100.183594 57.714844 C 100.074219 57.714844 99.988281 57.625 99.988281 57.519531 L 99.988281 56.972656 C 99.988281 56.863281 100.074219 56.777344 100.183594 56.777344 Z M 100.183594 56.777344 "/>
<path style=" stroke:none;fill-rule:evenodd;fill:rgb(100%,100%,100%);fill-opacity:1;" d="M 102.417969 65.5 C 101.976562 65.722656 101.746094 66.277344 101.265625 66.496094 C 99.980469 67.40625 98.339844 67.144531 96.867188 67.1875 C 96.652344 71.269531 97.367188 75.742188 102.445312 77.28125 C 107.578125 76.214844 108.128906 71.710938 108.074219 67.835938 C 108.289062 67.148438 107.835938 67.125 107.304688 67.191406 C 105.78125 67.238281 103.96875 67.15625 102.9375 65.851562 C 102.8125 65.683594 102.652344 65.472656 102.417969 65.5 Z M 102.417969 65.5 "/>
<path style=" stroke:none;fill-rule:evenodd;fill:rgb(39.215686%,86.666667%,9.019608%);fill-opacity:1;" d="M 102.351562 66.496094 C 101.355469 67.589844 99.855469 67.933594 98.4375 67.886719 C 98.105469 67.960938 97.40625 67.671875 97.574219 68.230469 C 97.738281 71.566406 97.789062 75.101562 102.511719 76.457031 C 107.207031 75.421875 107.292969 71.546875 107.371094 68.226562 C 107.527344 67.625 106.664062 67.996094 106.300781 67.882812 C 104.890625 67.917969 103.425781 67.480469 102.46875 66.375 L 102.386719 66.457031 Z M 102.351562 66.496094 "/>
<path style=" stroke:none;fill-rule:evenodd;fill:rgb(100%,100%,100%);fill-opacity:1;" d="M 110.859375 66.757812 L 111.066406 66.964844 C 111.269531 67.171875 111.269531 67.503906 111.066406 67.710938 L 104.929688 73.917969 C 104.726562 74.125 104.398438 74.125 104.195312 73.917969 L 103.988281 73.710938 C 103.785156 73.503906 103.785156 73.171875 103.988281 72.964844 L 110.125 66.757812 C 110.328125 66.550781 110.65625 66.550781 110.859375 66.757812 Z M 110.859375 66.757812 "/>
<path style=" stroke:none;fill-rule:evenodd;fill:rgb(100%,100%,100%);fill-opacity:1;" d="M 101.542969 70.386719 L 101.691406 70.234375 C 101.898438 70.027344 102.226562 70.027344 102.429688 70.234375 L 105.109375 72.945312 C 105.308594 73.152344 105.308594 73.484375 105.109375 73.691406 L 104.957031 73.839844 C 104.753906 74.046875 104.425781 74.046875 104.222656 73.839844 L 101.542969 71.128906 C 101.339844 70.921875 101.339844 70.589844 101.542969 70.386719 Z M 101.542969 70.386719 "/>
<path style=" stroke:none;fill-rule:evenodd;fill:rgb(14.901961%,19.607843%,21.960784%);fill-opacity:1;" d="M 88.289062 55.871094 L 89.046875 55.871094 C 89.394531 55.871094 89.675781 56.15625 89.675781 56.503906 L 89.675781 93.242188 C 89.675781 93.589844 89.394531 93.875 89.046875 93.875 L 88.289062 93.875 C 87.941406 93.875 87.660156 93.589844 87.660156 93.242188 L 87.660156 56.503906 C 87.660156 56.15625 87.941406 55.871094 88.289062 55.871094 Z M 88.289062 55.871094 "/>
<path style=" stroke:none;fill-rule:evenodd;fill:rgb(95.686275%,31.764706%,11.764706%);fill-opacity:1;" d="M 70.164062 37.621094 L 124.359375 37.621094 C 124.65625 37.621094 124.902344 37.863281 124.902344 38.164062 L 124.902344 39.328125 C 124.902344 39.628906 124.65625 39.871094 124.359375 39.871094 L 70.164062 39.871094 C 69.863281 39.871094 69.621094 39.628906 69.621094 39.328125 L 69.621094 38.164062 C 69.621094 37.863281 69.863281 37.621094 70.164062 37.621094 Z M 70.164062 37.621094 "/>
<path style=" stroke:none;fill-rule:evenodd;fill:rgb(100%,100%,100%);fill-opacity:1;" d="M 69.800781 37.121094 L 123.992188 37.121094 C 124.292969 37.121094 124.539062 37.363281 124.539062 37.664062 L 124.539062 38.828125 C 124.539062 39.128906 124.292969 39.371094 123.992188 39.371094 L 69.800781 39.371094 C 69.5 39.371094 69.257812 39.128906 69.257812 38.828125 L 69.257812 37.664062 C 69.257812 37.363281 69.5 37.121094 69.800781 37.121094 Z M 69.800781 37.121094 "/>
<path style=" stroke:none;fill-rule:evenodd;fill:rgb(100%,75.686275%,2.745098%);fill-opacity:1;" d="M 92.640625 126.78125 C 92.425781 127 90.402344 126.488281 90.097656 126.535156 C 89.796875 126.582031 88.027344 127.695312 87.753906 127.554688 C 87.480469 127.414062 87.34375 125.332031 87.203125 125.058594 C 87.0625 124.785156 85.460938 123.445312 85.507812 123.144531 C 85.558594 122.839844 87.496094 122.0625 87.710938 121.84375 C 87.929688 121.628906 88.703125 119.6875 89.007812 119.640625 C 89.3125 119.59375 90.648438 121.195312 90.921875 121.335938 C 91.195312 121.476562 93.277344 121.617188 93.417969 121.890625 C 93.554688 122.164062 92.445312 123.929688 92.398438 124.234375 C 92.347656 124.539062 92.859375 126.5625 92.640625 126.78125 Z M 92.640625 126.78125 "/>
<path style=" stroke:none;fill-rule:evenodd;fill:rgb(100%,75.686275%,2.745098%);fill-opacity:1;" d="M 101.703125 126.78125 C 101.484375 127 99.460938 126.488281 99.15625 126.535156 C 98.855469 126.582031 97.085938 127.695312 96.816406 127.554688 C 96.542969 127.414062 96.402344 125.332031 96.261719 125.058594 C 96.125 124.785156 94.519531 123.445312 94.570312 123.144531 C 94.617188 122.839844 96.554688 122.0625 96.769531 121.84375 C 96.988281 121.628906 97.765625 119.6875 98.066406 119.640625 C 98.371094 119.59375 99.707031 121.195312 99.980469 121.335938 C 100.253906 121.476562 102.335938 121.617188 102.476562 121.890625 C 102.613281 122.164062 101.503906 123.929688 101.457031 124.234375 C 101.410156 124.539062 101.917969 126.5625 101.703125 126.78125 Z M 101.703125 126.78125 "/>
<path style=" stroke:none;fill-rule:evenodd;fill:rgb(100%,75.686275%,2.745098%);fill-opacity:1;" d="M 111.425781 126.78125 C 111.210938 127 109.183594 126.488281 108.882812 126.535156 C 108.578125 126.582031 106.8125 127.695312 106.539062 127.554688 C 106.265625 127.414062 106.125 125.332031 105.984375 125.058594 C 105.847656 124.785156 104.246094 123.445312 104.292969 123.144531 C 104.339844 122.839844 106.277344 122.0625 106.496094 121.84375 C 106.710938 121.628906 107.488281 119.6875 107.792969 119.640625 C 108.09375 119.59375 109.429688 121.195312 109.707031 121.335938 C 109.976562 121.476562 112.058594 121.617188 112.199219 121.890625 C 112.339844 122.164062 111.226562 123.929688 111.179688 124.234375 C 111.132812 124.539062 111.644531 126.5625 111.425781 126.78125 Z M 111.425781 126.78125 "/>
<path style=" stroke:none;fill-rule:evenodd;fill:rgb(100%,75.686275%,2.745098%);fill-opacity:1;" d="M 120.882812 126.78125 C 120.667969 127 118.644531 126.488281 118.339844 126.535156 C 118.039062 126.582031 116.269531 127.695312 115.996094 127.554688 C 115.722656 127.414062 115.582031 125.332031 115.445312 125.058594 C 115.304688 124.785156 113.703125 123.445312 113.75 123.144531 C 113.796875 122.839844 115.734375 122.0625 115.953125 121.84375 C 116.167969 121.628906 116.945312 119.6875 117.25 119.640625 C 117.550781 119.59375 118.890625 121.195312 119.164062 121.335938 C 119.4375 121.476562 121.519531 121.617188 121.65625 121.890625 C 121.796875 122.164062 120.6875 123.929688 120.636719 124.234375 C 120.589844 124.539062 121.101562 126.5625 120.882812 126.78125 Z M 120.882812 126.78125 "/>
<path style=" stroke:none;fill-rule:evenodd;fill:rgb(100%,87.843137%,50.980392%);fill-opacity:1;" d="M 130.207031 126.78125 C 129.992188 127 127.96875 126.488281 127.664062 126.535156 C 127.363281 126.582031 125.59375 127.695312 125.320312 127.554688 C 125.050781 127.414062 124.910156 125.332031 124.769531 125.058594 C 124.628906 124.785156 123.027344 123.445312 123.074219 123.144531 C 123.125 122.839844 125.0625 122.0625 125.277344 121.84375 C 125.496094 121.628906 126.273438 119.6875 126.574219 119.640625 C 126.875 119.59375 128.214844 121.195312 128.488281 121.335938 C 128.761719 121.476562 130.84375 121.617188 130.980469 121.890625 C 131.121094 122.164062 130.011719 123.929688 129.964844 124.234375 C 129.914062 124.539062 130.425781 126.5625 130.207031 126.78125 Z M 130.207031 126.78125 "/>
<path style=" stroke:none;fill-rule:evenodd;fill:rgb(100%,43.921569%,26.27451%);fill-opacity:1;" d="M 162.296875 67.25 C 162.296875 70.269531 159.851562 72.71875 156.832031 72.71875 C 153.816406 72.71875 151.371094 70.269531 151.371094 67.25 C 151.371094 64.226562 153.816406 61.777344 156.832031 61.777344 C 159.851562 61.777344 162.296875 64.226562 162.296875 67.25 Z M 162.296875 67.25 "/>
<path style=" stroke:none;fill-rule:evenodd;fill:rgb(100%,43.921569%,26.27451%);fill-opacity:1;" d="M 175.859375 67.25 C 175.859375 70.269531 173.414062 72.71875 170.398438 72.71875 C 167.378906 72.71875 164.933594 70.269531 164.933594 67.25 C 164.933594 64.226562 167.378906 61.777344 170.398438 61.777344 C 173.414062 61.777344 175.859375 64.226562 175.859375 67.25 Z M 175.859375 67.25 "/>
<path style=" stroke:none;fill-rule:evenodd;fill:rgb(100%,43.921569%,26.27451%);fill-opacity:1;" d="M 190.179688 67.25 C 190.179688 70.269531 187.734375 72.71875 184.714844 72.71875 C 181.699219 72.71875 179.253906 70.269531 179.253906 67.25 C 179.253906 64.226562 181.699219 61.777344 184.714844 61.777344 C 187.734375 61.777344 190.179688 64.226562 190.179688 67.25 Z M 190.179688 67.25 "/>
<path style=" stroke:none;fill-rule:evenodd;fill:rgb(100%,43.921569%,26.27451%);fill-opacity:1;" d="M 203.933594 67.25 C 203.933594 70.269531 201.484375 72.71875 198.46875 72.71875 C 195.453125 72.71875 193.003906 70.269531 193.003906 67.25 C 193.003906 64.226562 195.453125 61.777344 198.46875 61.777344 C 201.484375 61.777344 203.933594 64.226562 203.933594 67.25 Z M 203.933594 67.25 "/>
<path style=" stroke:none;fill-rule:nonzero;fill:rgb(100%,100%,100%);fill-opacity:1;" d="M 171.507812 71.925781 L 170.925781 71.925781 L 170.921875 70.53125 C 170.511719 70.523438 170.101562 70.484375 169.691406 70.414062 C 169.285156 70.347656 168.878906 70.242188 168.46875 70.101562 L 168.46875 69.265625 C 168.863281 69.464844 169.265625 69.617188 169.671875 69.71875 C 170.078125 69.816406 170.496094 69.867188 170.925781 69.871094 L 170.925781 67.757812 C 170.066406 67.644531 169.441406 67.460938 169.050781 67.195312 C 168.660156 66.929688 168.46875 66.5625 168.46875 66.097656 C 168.46875 65.597656 168.679688 65.199219 169.097656 64.910156 C 169.523438 64.617188 170.132812 64.449219 170.925781 64.40625 L 170.925781 63.316406 L 171.507812 63.316406 L 171.507812 64.394531 C 171.871094 64.40625 172.21875 64.433594 172.558594 64.480469 C 172.898438 64.53125 173.226562 64.597656 173.550781 64.679688 L 173.550781 65.492188 C 173.226562 65.359375 172.898438 65.261719 172.558594 65.191406 C 172.214844 65.121094 171.867188 65.078125 171.507812 65.0625 L 171.507812 67.042969 C 172.390625 67.152344 173.039062 67.347656 173.457031 67.625 C 173.875 67.902344 174.082031 68.285156 174.082031 68.765625 C 174.082031 69.289062 173.859375 69.699219 173.417969 70.003906 C 172.980469 70.304688 172.34375 70.476562 171.507812 70.519531 Z M 170.925781 66.960938 L 170.925781 65.058594 C 170.476562 65.101562 170.132812 65.203125 169.894531 65.367188 C 169.65625 65.53125 169.539062 65.75 169.539062 66.019531 C 169.539062 66.289062 169.648438 66.496094 169.867188 66.648438 C 170.085938 66.792969 170.441406 66.898438 170.925781 66.960938 Z M 171.507812 67.851562 L 171.507812 69.859375 C 172.003906 69.804688 172.375 69.695312 172.621094 69.527344 C 172.875 69.355469 173 69.128906 173 68.855469 C 173 68.582031 172.882812 68.363281 172.644531 68.207031 C 172.40625 68.046875 172.027344 67.925781 171.507812 67.851562 Z M 171.507812 67.851562 "/>
<path style="fill-rule:nonzero;fill:rgb(100%,100%,100%);fill-opacity:1;stroke-width:1;stroke-linecap:butt;stroke-linejoin:miter;stroke:rgb(0%,0%,0%);stroke-opacity:1;stroke-miterlimit:4;" d="M 39.013346 10.004845 L 39.002746 27.987422 L 63.987319 43.012488 L 63.984087 49.997501 L 39.006101 40.983661 L 38.989236 54.994436 L 44.999541 58.994523 L 45.006127 65.005749 L 36.011954 61.98326 L 27.013968 65.012745 L 27.007381 59.001519 L 33.000376 54.991702 L 32.991661 40.996125 L 7.992675 50.005609 L 8.006307 42.979848 L 32.988306 27.999885 L 32.983726 9.991757 C 33.012084 8.350131 34.355158 6.999101 36.008033 6.98509 C 37.650507 7.011827 39.000944 8.352864 39.013346 10.004845 Z M 39.013346 10.004845 " transform="matrix(0.11287,0.0671305,-0.0670557,0.112996,183.263527,60.668476)"/>
<path style=" stroke:none;fill-rule:evenodd;fill:rgb(95.686275%,31.764706%,11.764706%);fill-opacity:1;" d="M 70.148438 41.769531 L 111.941406 41.769531 C 112.234375 41.769531 112.46875 42.007812 112.46875 42.296875 L 112.46875 43.425781 C 112.46875 43.71875 112.234375 43.953125 111.941406 43.953125 L 70.148438 43.953125 C 69.859375 43.953125 69.621094 43.71875 69.621094 43.425781 L 69.621094 42.296875 C 69.621094 42.007812 69.859375 41.769531 70.148438 41.769531 Z M 70.148438 41.769531 "/>
<path style=" stroke:none;fill-rule:evenodd;fill:rgb(100%,100%,100%);fill-opacity:1;" d="M 69.785156 41.269531 L 111.578125 41.269531 C 111.867188 41.269531 112.105469 41.507812 112.105469 41.796875 L 112.105469 42.925781 C 112.105469 43.21875 111.867188 43.453125 111.578125 43.453125 L 69.785156 43.453125 C 69.492188 43.453125 69.257812 43.21875 69.257812 42.925781 L 69.257812 41.796875 C 69.257812 41.507812 69.492188 41.269531 69.785156 41.269531 Z M 69.785156 41.269531 "/>
<path style=" stroke:none;fill-rule:evenodd;fill:rgb(100%,100%,100%);fill-opacity:1;" d="M 156.640625 64.027344 L 159.804688 66.289062 L 156.191406 71.355469 L 153.027344 69.09375 Z M 156.640625 64.027344 "/>
<path style=" stroke:none;fill-rule:evenodd;fill:rgb(95.686275%,31.764706%,11.764706%);fill-opacity:1;" d="M 158.320312 63.566406 L 159.753906 64.59375 L 158.847656 65.859375 L 157.417969 64.832031 Z M 158.320312 63.566406 "/>
<path style=" stroke:none;fill-rule:evenodd;fill:rgb(100%,100%,100%);fill-opacity:1;" d="M 158.332031 63.554688 L 156.648438 64.042969 L 157.789062 65.714844 L 159.800781 66.28125 C 159.800781 66.28125 159.769531 64.613281 159.730469 64.585938 C 159.695312 64.558594 158.332031 63.554688 158.332031 63.554688 Z M 158.332031 63.554688 "/>
<path style=" stroke:none;fill-rule:evenodd;fill:rgb(100%,43.921569%,26.27451%);fill-opacity:1;" d="M 158.804688 65.742188 C 159.0625 65.378906 158.980469 64.878906 158.617188 64.617188 C 158.253906 64.359375 157.75 64.445312 157.492188 64.804688 C 157.234375 65.167969 157.320312 65.671875 157.679688 65.929688 C 158.042969 66.1875 158.546875 66.105469 158.804688 65.742188 Z M 158.804688 65.742188 "/>
<path style=" stroke:none;fill-rule:evenodd;fill:rgb(100%,100%,100%);fill-opacity:1;" d="M 195.253906 64.675781 L 201.546875 64.675781 L 201.546875 69.816406 L 195.253906 69.816406 Z M 195.253906 64.675781 "/>
<path style=" stroke:none;fill-rule:evenodd;fill:rgb(100%,100%,100%);fill-opacity:1;" d="M 201.121094 65.015625 L 201.539062 64.703125 L 203.15625 67.367188 L 202.738281 67.683594 Z M 201.121094 65.015625 "/>
<path style=" stroke:none;fill-rule:evenodd;fill:rgb(100%,100%,100%);fill-opacity:1;" d="M 195.6875 65 L 195.285156 64.660156 L 193.519531 67.234375 L 193.921875 67.570312 Z M 195.6875 65 "/>
<path style=" stroke:none;fill-rule:evenodd;fill:rgb(100%,43.921569%,26.27451%);fill-opacity:1;" d="M 200.296875 65.996094 L 200.378906 66.078125 C 200.460938 66.160156 200.460938 66.296875 200.378906 66.378906 L 197.902344 68.886719 C 197.820312 68.96875 197.6875 68.96875 197.605469 68.886719 L 197.523438 68.800781 C 197.441406 68.71875 197.441406 68.585938 197.523438 68.5 L 200 65.996094 C 200.082031 65.910156 200.214844 65.910156 200.296875 65.996094 Z M 200.296875 65.996094 "/>
<path style=" stroke:none;fill-rule:evenodd;fill:rgb(100%,43.921569%,26.27451%);fill-opacity:1;" d="M 196.53125 67.457031 L 196.589844 67.398438 C 196.675781 67.3125 196.804688 67.3125 196.886719 67.398438 L 197.96875 68.492188 C 198.054688 68.574219 198.054688 68.707031 197.96875 68.792969 L 197.910156 68.851562 C 197.828125 68.9375 197.695312 68.9375 197.613281 68.851562 L 196.53125 67.757812 C 196.449219 67.675781 196.449219 67.539062 196.53125 67.457031 Z M 196.53125 67.457031 "/>
<path style=" stroke:none;fill-rule:evenodd;fill:rgb(25.882353%,25.882353%,25.882353%);fill-opacity:1;" d="M 94.578125 177.914062 L 186.441406 177.914062 C 186.9375 177.914062 187.527344 177.824219 187.339844 177.726562 L 182.84375 175.394531 C 182.660156 175.296875 180.757812 175.207031 180.257812 175.207031 L 100.757812 175.207031 C 100.261719 175.207031 98.359375 175.296875 98.171875 175.394531 L 93.675781 177.726562 C 93.488281 177.824219 94.078125 177.914062 94.578125 177.914062 Z M 94.578125 177.914062 "/>
<path style=" stroke:none;fill-rule:evenodd;fill:rgb(100%,43.921569%,26.27451%);fill-opacity:1;" d="M 144.136719 51.230469 L 158.84375 51.230469 L 158.84375 53.210938 L 144.136719 53.210938 Z M 144.136719 51.230469 "/>
<path style=" stroke:none;fill-rule:evenodd;fill:rgb(100%,43.921569%,26.27451%);fill-opacity:1;" d="M 146.183594 45.089844 L 156.730469 45.089844 L 156.730469 51.753906 L 146.183594 51.753906 Z M 146.183594 45.089844 "/>
<path style=" stroke:none;fill-rule:evenodd;fill:rgb(100%,43.921569%,26.27451%);fill-opacity:1;" d="M 145.375 41.640625 L 157.773438 41.640625 L 159.433594 45.75 L 143.394531 45.75 Z M 145.375 41.640625 "/>
<path style=" stroke:none;fill-rule:evenodd;fill:rgb(100%,100%,100%);fill-opacity:1;" d="M 148.511719 46.816406 L 150.949219 46.816406 L 150.949219 51.242188 L 148.511719 51.242188 Z M 148.511719 46.816406 "/>
<path style=" stroke:none;fill-rule:evenodd;fill:rgb(100%,100%,100%);fill-opacity:1;" d="M 151.585938 46.816406 L 154.027344 46.816406 L 154.027344 51.242188 L 151.585938 51.242188 Z M 151.585938 46.816406 "/>
<path style=" stroke:none;fill-rule:evenodd;fill:rgb(100%,100%,100%);fill-opacity:1;" d="M 200.460938 52.042969 L 200.460938 51.738281 C 200.460938 51.628906 200.550781 51.535156 200.664062 51.535156 L 210.179688 51.535156 C 210.292969 51.535156 210.382812 51.628906 210.382812 51.738281 L 210.382812 52.042969 C 210.382812 52.15625 210.292969 52.246094 210.179688 52.246094 L 200.664062 52.246094 C 200.550781 52.246094 200.460938 52.15625 200.460938 52.042969 Z M 200.460938 52.042969 "/>
<path style=" stroke:none;fill-rule:evenodd;fill:rgb(100%,100%,100%);fill-opacity:1;" d="M 203.648438 42.601562 L 203.703125 42.601562 C 203.828125 42.601562 203.929688 42.699219 203.929688 42.824219 L 203.929688 47.792969 C 203.929688 47.914062 203.828125 48.015625 203.703125 48.015625 L 203.648438 48.015625 C 203.523438 48.015625 203.425781 47.914062 203.425781 47.792969 L 203.425781 42.824219 C 203.425781 42.699219 203.523438 42.601562 203.648438 42.601562 Z M 203.648438 42.601562 "/>
<path style=" stroke:none;fill-rule:evenodd;fill:rgb(100%,100%,100%);fill-opacity:1;" d="M 206.28125 42.601562 L 206.339844 42.601562 C 206.460938 42.601562 206.5625 42.699219 206.5625 42.824219 L 206.5625 47.792969 C 206.5625 47.914062 206.460938 48.015625 206.339844 48.015625 L 206.28125 48.015625 C 206.15625 48.015625 206.058594 47.914062 206.058594 47.792969 L 206.058594 42.824219 C 206.058594 42.699219 206.15625 42.601562 206.28125 42.601562 Z M 206.28125 42.601562 "/>
<path style=" stroke:none;fill-rule:evenodd;fill:rgb(100%,100%,100%);fill-opacity:1;" d="M 209.082031 42.601562 L 209.136719 42.601562 C 209.261719 42.601562 209.359375 42.699219 209.359375 42.824219 L 209.359375 47.792969 C 209.359375 47.914062 209.261719 48.015625 209.136719 48.015625 L 209.082031 48.015625 C 208.957031 48.015625 208.855469 47.914062 208.855469 47.792969 L 208.855469 42.824219 C 208.855469 42.699219 208.957031 42.601562 209.082031 42.601562 Z M 209.082031 42.601562 "/>
</g>
</svg>
